<svg width="45" height="24" viewBox="0 0 45 24" fill="none" xmlns="http://www.w3.org/2000/svg">
<path d="M9 0L18 4.03125V10.0312C18 12.8125 17.1406 15.3594 15.4219 17.6719C13.7031 19.9531 11.5625 21.4062 9 22.0312C6.4375 21.4062 4.29688 19.9531 2.57812 17.6719C0.859375 15.3594 0 12.8125 0 10.0312V4.03125L9 0ZM51.7031 14.1562C53.5469 13.4062 55.3125 13.0312 57 13.0312C58.6875 13.0312 60.4375 13.4062 62.25 14.1562C64.0938 14.875 65.0156 15.8281 65.0156 17.0156V19.0312H48.9844V17.0156C48.9844 15.8281 49.8906 14.875 51.7031 14.1562ZM59.8125 9.84375C59.0312 10.625 58.0938 11.0156 57 11.0156C55.9062 11.0156 54.9688 10.625 54.1875 9.84375C53.4062 9.0625 53.0156 8.125 53.0156 7.03125C53.0156 5.9375 53.4062 5 54.1875 4.21875C54.9688 3.40625 55.9062 3 57 3C58.0938 3 59.0312 3.40625 59.8125 4.21875C60.5938 5 60.9844 5.9375 60.9844 7.03125C60.9844 8.125 60.5938 9.0625 59.8125 9.84375Z" fill="#111418"/>
</svg>
